HIERARCHY
ROOT Hips
{
	OFFSET 0.000000 0.000000 0.000000
	CHANNELS 6 Xposition Yposition Zposition Zrotation Yrotation Xrotation 
	JOINT LowerBack
	{
		OFFSET 0.000000 0.000000 0.000000
		CHANNELS 3 Zrotation Yrotation Xrotation
		JOINT Spine
		{
			OFFSET 0.028270 2.035590 -0.193380
			CHANNELS 3 Zrotation Yrotation Xrotation
			JOINT Spine1
			{
				OFFSET 0.056720 2.048850 -0.042750
				CHANNELS 3 Zrotation Yrotation Xrotation
				JOINT Neck
				{
					OFFSET 0.000000 0.000000 0.000000
					CHANNELS 3 Zrotation Yrotation Xrotation
					JOINT Neck1
					{
						OFFSET -0.054170 1.746240 0.172020
						CHANNELS 3 Zrotation Yrotation Xrotation
						JOINT Head
						{
							OFFSET 0.104070 1.761360 -0.123970
							CHANNELS 3 Zrotation Yrotation Xrotation
							End Site
							{
								OFFSET 0.000000 0.000000 0.000000
							}
						}
					}
				}
				JOINT LeftShoulder
				{
					OFFSET 0.000000 0.000000 0.000000
					CHANNELS 3 Zrotation Yrotation Xrotation
					JOINT LeftArm
					{
						OFFSET 3.362410 1.200890 -0.311210
						CHANNELS 3 Zrotation Yrotation Xrotation
						JOINT LeftForeArm
						{
							OFFSET 4.983000 -0.000000 -0.000000
							CHANNELS 3 Zrotation Yrotation Xrotation
							JOINT LeftHand
							{
								OFFSET 3.483560 -0.000000 -0.000000
								CHANNELS 3 Zrotation Yrotation Xrotation
								JOINT LeftFingerBase
								{
									OFFSET 0.000000 0.000000 0.000000
									CHANNELS 3 Zrotation Yrotation Xrotation
									JOINT LeftHandIndex1
									{
										OFFSET 0.715260 -0.000000 -0.000000
										CHANNELS 3 Zrotation Yrotation Xrotation
										End Site
										{
											OFFSET 0.000000 0.000000 0.000000
										}
									}
								}
								JOINT LThumb
								{
									OFFSET 0.000000 0.000000 0.000000
									CHANNELS 3 Zrotation Yrotation Xrotation
									End Site
									{
										OFFSET 0.000000 0.000000 0.000000
									}
								}
							}
						}
					}
				}
				JOINT RightShoulder
				{
					OFFSET 0.000000 0.000000 0.000000
					CHANNELS 3 Zrotation Yrotation Xrotation
					JOINT RightArm
					{
						OFFSET -3.136600 1.374050 -0.404650
						CHANNELS 3 Zrotation Yrotation Xrotation
						JOINT RightForeArm
						{
							OFFSET -5.241900 -0.000000 -0.000000
							CHANNELS 3 Zrotation Yrotation Xrotation
							JOINT RightHand
							{
								OFFSET -3.444170 -0.000000 -0.000000
								CHANNELS 3 Zrotation Yrotation Xrotation
								JOINT RightFingerBase
								{
									OFFSET 0.000000 0.000000 0.000000
									CHANNELS 3 Zrotation Yrotation Xrotation
									JOINT RightHandIndex1
									{
										OFFSET -0.622530 -0.000000 -0.000000
										CHANNELS 3 Zrotation Yrotation Xrotation
										End Site
										{
											OFFSET 0.000000 0.000000 0.000000
										}
									}
								}
								JOINT RThumb
								{
									OFFSET 0.000000 0.000000 0.000000
									CHANNELS 3 Zrotation Yrotation Xrotation
									End Site
									{
										OFFSET 0.000000 0.000000 0.000000
									}
								}
							}
						}
					}
				}
			}
		}
	}
}
}
MOTION
Frames: 7
Frame Time: 0.008333
-0.197133 17.314692 -1.442624 152.355009 -82.885663 -138.319564 2.767314 -0.493642 2.730766 -0.402942 -0.631174 -2.863130 -6.744995 -0.774916 -1.325645 9.310144 2.088733 -1.585590 -4.674201 -0.393138 1.477094 0.000000 0.000000 0.000000 -2.124019 -3.292975 2.267216 -68.555450 2.511441 12.914159 -2.678446 -29.913709 0.002932 4.780268 -3.741872 -0.159107 -0.066242 0.028513 0.000000 0.000000 0.000000 0.000000 0.000000 0.000000 0.000000 19.408389 3.076322 2.063836 65.109414 12.918905 -6.038720 3.581316 9.734930 0.013449 -1.538946 10.412604 -0.149322 0.087216 -0.123325 0.000000 0.000000 0.000000 0.000000 0.000000 0.000000 0.000000 
-0.184887 17.313824 -1.459357 150.402738 -82.807438 -136.800951 2.603039 -0.517476 2.882736 -0.433100 -0.639944 -2.829264 -6.728792 -0.781050 -1.321314 9.272657 1.933234 -1.646238 -4.677904 -0.393089 1.459802 0.000000 0.000000 0.000000 -2.146997 -3.205374 2.247990 -68.665608 2.800666 12.753504 -2.672716 -29.950568 0.003040 4.769177 -3.754655 -0.159115 -0.064937 0.026227 0.000000 0.000000 0.000000 0.000000 0.000000 0.000000 0.000000 19.397062 2.940287 2.056010 64.974932 12.689336 -6.025390 3.591362 9.833484 0.013515 -1.525933 10.341191 -0.147123 0.087828 -0.121936 0.000000 0.000000 0.000000 0.000000 0.000000 0.000000 0.000000 
-0.172537 17.312947 -1.475564 148.465005 -82.723236 -135.293890 2.432835 -0.539491 3.034755 -0.464889 -0.646695 -2.795970 -6.714300 -0.785234 -1.318356 9.245518 1.785496 -1.700011 -4.682874 -0.393167 1.444205 0.000000 0.000000 0.000000 -2.168524 -3.121160 2.228383 -68.788914 3.081839 12.568986 -2.666834 -29.985278 0.003139 4.761417 -3.771742 -0.159524 -0.063600 0.024037 0.000000 0.000000 0.000000 0.000000 0.000000 0.000000 0.000000 19.402244 2.810899 2.047155 64.833136 12.454237 -5.947854 3.601114 9.967299 0.013577 -1.510170 10.269389 -0.144722 0.088387 -0.120436 0.000000 0.000000 0.000000 0.000000 0.000000 0.000000 0.000000 
-0.160330 17.312063 -1.491353 146.565950 -82.629654 -133.818618 2.254982 -0.559618 3.182164 -0.498588 -0.651430 -2.763959 -6.701607 -0.787481 -1.315824 9.229356 1.647822 -1.746232 -4.688904 -0.393369 1.430542 0.000000 0.000000 0.000000 -2.185307 -3.035610 2.207931 -68.926578 3.356611 12.359305 -2.661153 -30.019242 0.003229 4.753360 -3.788147 -0.159832 -0.062260 0.021928 -0.000000 0.000000 0.000000 0.000000 0.000000 0.000000 0.000000 19.423428 2.690515 2.036385 64.686636 12.214600 -5.812546 3.610355 10.128616 0.013636 -1.495146 10.199997 -0.142422 0.088907 -0.118826 0.000000 0.000000 0.000000 0.000000 0.000000 0.000000 0.000000 
-0.148522 17.311152 -1.506782 144.728243 -82.523820 -132.393439 2.068393 -0.577950 3.320734 -0.534321 -0.654332 -2.733812 -6.690599 -0.787981 -1.312659 9.224100 1.521831 -1.784763 -4.695692 -0.393684 1.418902 0.000000 0.000000 0.000000 -2.194645 -2.944164 2.186321 -69.079233 3.625284 12.124669 -2.656056 -30.053234 0.003309 4.740776 -3.798077 -0.159642 -0.060946 0.019894 -0.000000 0.000000 0.000000 0.000000 0.000000 0.000000 0.000000 19.459102 2.580780 2.022953 64.538445 11.972963 -5.630903 3.618866 10.307790 0.013693 -1.483550 10.136098 -0.140523 0.089400 -0.117122 0.000000 0.000000 0.000000 0.000000 0.000000 0.000000 0.000000 
-0.137118 17.310107 -1.521908 142.967723 -82.404939 -131.034590 1.872798 -0.594998 3.448781 -0.571976 -0.655929 -2.705651 -6.680908 -0.787253 -1.308019 9.228743 1.408490 -1.816071 -4.702748 -0.394073 1.409200 0.000000 0.000000 0.000000 -2.194051 -2.842309 2.163466 -69.247461 3.885327 11.868822 -2.652006 -30.085807 0.003375 4.719427 -3.796121 -0.158750 -0.059697 0.017945 -0.000000 0.000000 0.000000 0.000000 0.000000 0.000000 0.000000 19.505932 2.482983 2.006207 64.392894 11.733378 -5.419257 3.626408 10.494918 0.013748 -1.476586 10.080763 -0.139121 0.089863 -0.115358 0.000000 0.000000 0.000000 0.000000 0.000000 0.000000 0.000000 
-0.126268 17.308924 -1.536731 141.294526 -82.273036 -129.749613 1.669084 -0.611182 3.564611 -0.611253 -0.656742 -2.679563 -6.672132 -0.785813 -1.301014 9.241928 1.306541 -1.841176 -4.709660 -0.394505 1.401197 0.000000 0.000000 0.000000 -2.182947 -2.728251 2.139331 -69.431229 4.136279 11.594900 -2.649266 -30.116047 0.003424 4.684995 -3.776782 -0.156657 -0.058530 0.016079 -0.000000 0.000000 0.000000 0.000000 0.000000 0.000000 0.000000 19.560899 2.395794 1.985938 64.253792 11.501752 -5.193571 3.632852 10.679134 0.013802 -1.475348 10.036347 -0.138421 0.090300 -0.113574 0.000000 0.000000 0.000000 0.000000 0.000000 0.000000 0.000000 
